<svg fill="none" height="64" viewBox="0 0 66 64" width="66" xmlns="http://www.w3.org/2000/svg"><g fill="#f96604"><path d="m47.9147 29.8913c.5128-.5107 1.3443-.5107 1.8572 0 .4662.4643.5086 1.1908.1271 1.7028l-.1271.1466-1.1118 1.1071c-.5128.5107-1.3443.5107-1.8571 0-.4662-.4643-.5086-1.1908-.1272-1.7027l.1272-.1467z"/><path d="m36.1325 41.6237c.5128-.5107 1.3443-.5107 1.8572 0 .4662.4643.5086 1.1908.1271 1.7028l-.1271.1467-1.1118 1.107c-.5128.5107-1.3443.5107-1.8571 0-.4663-.4642-.5086-1.1908-.1272-1.7027l.1272-.1467z"/><path d="m42.3963 26.8491c.6648 0 1.2143.492 1.3012 1.1303l.012.1774v1.5657c0 .7222-.5879 1.3077-1.3132 1.3077-.6648 0-1.2143-.492-1.3012-1.1303l-.012-.1774v-1.5657c0-.7222.5879-1.3077 1.3132-1.3077z"/><path d="m35.0208 29.8913c.4662-.4642 1.1957-.5065 1.7099-.1266l.1472.1266 1.1118 1.1071c.5128.5107.5128 1.3387 0 1.8494-.4663.4643-1.1958.5065-1.7099.1266l-.1473-.1266-1.1117-1.1071c-.5129-.5107-.5129-1.3387 0-1.8494z"/><path d="m34.8513 35.9287c.7253 0 1.3132.5855 1.3132 1.3077 0 .6621-.494 1.2092-1.135 1.2958l-.1782.012h-1.5722c-.7253 0-1.3132-.5855-1.3132-1.3078 0-.662.494-1.2092 1.135-1.2958l.1782-.0119z"/><path clip-rule="evenodd" d="m39.8667 37.5911c-.2734-.8165-.0599-1.7168.5512-2.3254l.1918-.1706c.5994-.4757 1.4054-.6233 2.1434-.3783l7.7883 2.5852c.8454.2806 1.4494 1.0257 1.5466 1.9078.0973.8821-.33 1.7399-1.0942 2.1965l-2.6221 1.5667c-.0879.0525-.1614.1257-.2141.2132l-1.5733 2.6111c-.4585.761-1.3199 1.1866-2.2057 1.0898-.8858-.0969-1.634-.6984-1.9158-1.5403zm9.1341 1.9556-6.4243-2.1325 2.1397 6.3974 1.1891-1.9705c.2196-.3645.5086-.6815.8497-.9336l.2653-.1767z" fill-rule="evenodd"/><path d="m46.3944 41.2175c.4662-.4643 1.1958-.5065 1.7099-.1266l.1472.1266 2.9686 2.9561c.5128.5107.5128 1.3387 0 1.8494-.4662.4643-1.1958.5065-1.7099.1267l-.1473-.1267-2.9685-2.9561c-.5129-.5107-.5129-1.3387 0-1.8494z"/></g><path d="m30.7814 45.7263h-10.0717-10.0716c-2.61772 0-4.73976-2.1132-4.73976-4.7199v-21.2396c0-2.6067 2.12204-4.7199 4.73976-4.7199h33.178c2.6177 0 4.7397 2.1132 4.7397 4.7199v4.5555" stroke="#f96604" stroke-linecap="round" stroke-linejoin="round" stroke-width="3"/><path d="m15.3778 53.7791h14.2192" stroke="#f96604" stroke-linecap="round" stroke-linejoin="round" stroke-width="3"/><rect fill="#ec650a" height="19.8051" rx="9.90257" width="20" x="46" y=".344727"/><path d="m55.5907 14.3638v-8.66605h1.876v8.66605z" fill="#fff"/></svg>