<svg fill="none" height="64" viewBox="0 0 66 64" width="66" xmlns="http://www.w3.org/2000/svg"><g stroke="#f96604" stroke-linecap="round" stroke-linejoin="round" stroke-width="3"><path d="m13.8333 15.6929c-2.3932 0-4.3333 1.9212-4.3333 4.2911"/><path d="m9.49996 27.1289v4.2911"/><path d="m21.0483 15.6929h4.3333"/><path d="m44.1666 54.3131c2.3933 0 4.3334-1.9212 4.3334-4.2911"/><path d="m48.4998 42.8775v-4.2911"/><path d="m36.9516 54.314h-4.3333"/></g><path clip-rule="evenodd" d="m15.9198 51.9339h-4.7565c-1.97016 0-3.56731-1.5972-3.56731-3.5674v-7.1346c0-1.9702 1.59715-3.5673 3.56731-3.5673h11.8911c1.9702 0 3.5673 1.5971 3.5673 3.5673v7.1346c0 1.9702-1.5971 3.5674-3.5673 3.5674h-4.7564v2.3782h2.3782c.6567 0 1.1891.5323 1.1891 1.1891 0 .6567-.5324 1.1891-1.1891 1.1891h-7.1347c-.6567 0-1.1891-.5324-1.1891-1.1891 0-.6568.5324-1.1891 1.1891-1.1891h2.3783zm7.1346-11.8911h-11.8911c-.6567 0-1.18909.5323-1.18909 1.1891v7.1346c0 .6568.53239 1.1891 1.18909 1.1891h11.8911c.6567 0 1.1891-.5323 1.1891-1.1891v-7.1346c0-.6568-.5324-1.1891-1.1891-1.1891z" fill="#f96604" fill-rule="evenodd"/><path d="m41.9747 25.7783v5.0119h-1.8382v-9.9403h1.8382v4.3854l5.6491-4.3854h.807c-.7736-.985-1.7859-1.7859-2.9545-2.3375s-2.4606-.8383-3.7707-.8368c-.5582-.0086-1.1154.0475-1.6588.1671l-.4035-1.8377c.1735-.0718.3209-.1889.4243-.3372.1035-.1482.1585-.3213.1585-.4981.0023-.1268-.0229-.2526-.0739-.3701s-.1269-.2242-.2231-.3138c-.0962-.0897-.2108-.1603-.3369-.2079-.1261-.0475-.2612-.0709-.3973-.0688-.1312-.006-.2623.0137-.3849.0577-.1226.0441-.2339.1116-.3268.1981s-.1653.1902-.2126.3044-.0684.2364-.062.3586c-.0023.1267.0229.2526.0739.3701s.1269.2242.2231.3138.2108.1603.3369.2079c.1261.0475.2612.0709.3973.0688l.3586 1.8377c-1.3196.3254-2.5349.9436-3.5421 1.8019-1.0073.8583-1.7763 1.931-2.2415 3.1265l-3.8109-.9606v-.0835c.0017-.1869-.0366-.3723-.1126-.5453s-.1882-.3301-.3301-.4623-.3106-.2367-.4963-.3075-.3847-.1065-.5853-.105c-.3933.0196-.7642.1767-1.0385.44s-.4318.6133-.441.9801c-.0017.1869.0366.3723.1126.5453s.1882.3301.3301.4623.3106.2367.4963.3075.3847.1065.5853.1049c.271.0004.5375-.0648.7733-.1893s.4328-.3039.5717-.5207l3.8109.9606c-.5029 1.8032-.2962 3.7145.5829 5.3879l-1.7037.8771c-.0816-.0784-.1791-.141-.2869-.184-.1077-.043-.2236-.0657-.3408-.0666-.2259 0-.4426.0836-.6023.2324-.1598.1488-.2495.3507-.2495.5611.0075.2083.0996.4061.2578.5534.1581.1474.3705.2332.594.2402.2259 0 .4426-.0836.6024-.2324.1597-.1489.2495-.3507.2495-.5612v-.0835l1.7037-.8771c.9221 1.4808 2.3393 2.6397 4.035 3.2995l-.7622 2.9237c-.1707.0027-.3392.0367-.4958.1002-.1566.0634-.2983.1549-.417.2693-.2396.2311-.3709.5413-.3649.8626.0059.3212.1486.6271.3966.8503.2481.2232.5811.3455.926.34.3493-.0097.6807-.1461.9236-.3802.2429-.234.378-.5472.3766-.8728-.0005-.2094-.0585-.4153-.1683-.598-.1099-.1827-.268-.3363-.4594-.4461l.7173-2.8401c.809.2531 1.6573.3801 2.5107.3759 1.1758.0006 2.3386-.2297 3.4124-.6758 1.0738-.4462 2.0346-1.0983 2.8196-1.9137l-.1793.0417z" fill="#f96604"/><path d="m43.499 25.0265 5.2904 4.469c.7904-1.2232 1.2088-2.6236 1.2106-4.0513.0049-1.5821-.5115-3.1274-1.4796-4.4273z" fill="#f96604"/><rect fill="#ec650a" height="19.8051" rx="9.90257" width="20" x="46" y=".344727"/><path d="m57.0336 7.56008c-.3733 0-.6767.11667-.91.35-.2333.224-.35.52734-.35.91v5.54402h-1.862v-5.54402c0-.588.1353-1.12.406-1.596s.644-.84933 1.12-1.12c.476-.28 1.008-.42 1.596-.42h1.358v1.876z" fill="#fff"/></svg>