<svg fill="none" height="64" viewBox="0 0 65 64" width="65" xmlns="http://www.w3.org/2000/svg"><g fill="#f96604"><path d="m39.3452 20.3096.2742-.0161.2321.0132c.9907.11 1.7753.8919 1.88 1.8737l.0119.2299c-.003 1.1651-.9584 2.1075-2.1349 2.106-1.1766-.0015-2.1295-.9463-2.1295-2.103-.003-.5646.2226-1.1067.6265-1.5051.3366-.3321.7735-.5412 1.2397-.5986z"/><path d="m47 20.8374c.8745 0 1.5834.702 1.5834 1.5679 0 3.4433-2.6403 6.8585-6.5146 10.1105-1.4323 1.1531-3.4851 1.1531-4.943-.0211-3.8498-3.235-6.4869-6.6467-6.4869-10.0894 0-.8659.7089-1.5679 1.5833-1.5679.8745 0 1.5834.702 1.5834 1.5679 0 2.1837 2.212 5.0456 5.3435 7.6774.2685.2162.6534.2162.897.0205 2.9984-2.5171 5.1468-5.228 5.3541-7.3653l.0165-.3326c0-.8659.7089-1.5679 1.5833-1.5679z"/><path d="m39.6111 13.5205c4.9553 0 8.9723 3.9779 8.9723 8.8848 0 .8659-.7089 1.5679-1.5834 1.5679-.8744 0-1.5833-.702-1.5833-1.5679 0-3.1751-2.5992-5.749-5.8056-5.749-3.2063 0-5.8055 2.5739-5.8055 5.749 0 .8659-.7089 1.5679-1.5834 1.5679-.8744 0-1.5833-.702-1.5833-1.5679 0-4.9069 4.017-8.8848 8.9722-8.8848z"/><path d="m25.8889 15.6108c.8745 0 1.5833.702 1.5833 1.5679 0 .7938-.5956 1.4498-1.3684 1.5536l-.2149.0144h-10.5555c-2.5141 0-4.572 1.934-4.7391 4.3816l-.0109.3221v4.1811c0 .8659-.70893 1.5679-1.58338 1.5679-.80158 0-1.46404-.5899-1.56888-1.3552l-.01445-.2127v-4.1811c0-4.19 3.31941-7.6123 7.49621-7.8287l.4205-.0109z"/><path d="m47 34.4258c.8016 0 1.4641.5898 1.5689 1.3551l.0145.2128v12.5432c0 4.19-3.3195 7.6123-7.4963 7.8287l-.4204.0109h-4.2222c-.8745 0-1.5834-.702-1.5834-1.5679 0-.7938.5957-1.4498 1.3685-1.5536l.2149-.0143h4.2222c2.514 0 4.5719-1.9341 4.739-4.3817l.011-.3221v-12.5432c0-.8659.7089-1.5679 1.5833-1.5679z"/><path d="m19.5556 32.3354c.8015 0 1.464.5899 1.5688 1.3552l.0145.2128v7.3169c0 .8659-.7089 1.5679-1.5833 1.5679-.8016 0-1.4641-.5899-1.5689-1.3552l-.0145-.2127v-7.3169c0-.866.7089-1.568 1.5834-1.568z"/><path d="m27.4722 39.6523c2.2259 0 4.0495 1.7057 4.2107 3.8691l.0116.312v.5227c0 .8659-.7089 1.5679-1.5834 1.5679-.8015 0-1.464-.5899-1.5688-1.3552l-.0145-.2127v-.5227c0-.5131-.3734-.9399-.8658-1.0284l-.1898-.0168h-15.8333c-.5182 0-.9492.3697-1.0385.8573l-.017.1879v.5227c0 .8659-.70893 1.5679-1.58338 1.5679-.80158 0-1.46404-.5899-1.56888-1.3552l-.01445-.2127v-.5227c0-2.2042 1.72241-4.01 3.90711-4.1696l.3151-.0115z"/><path clip-rule="evenodd" d="m13.0874 32.3354h12.934c1.69 0 3.2172.998 3.8819 2.5367l1.0681 2.4723c.4771 1.1045.7231 2.2933.7231 3.4945v11.3567c0 1.1089-.4449 2.1724-1.2367 2.9565s-1.8658 1.2246-2.9856 1.2246h-15.8333c-2.33186 0-4.22221-1.8719-4.22221-4.1811v-11.3595c0-1.2002.24553-2.3879.72178-3.4915l1.06643-2.4711c.66434-1.5394 2.192-2.5381 3.8825-2.5381zm12.934 3.1361h-12.934c-.4226 0-.8045.2496-.9706.6345l-1.0664 2.4711c-.3082.7141-.467 1.4826-.467 2.2592v11.3595c0 .5773.4725 1.0453 1.0555 1.0453h15.8333c.28 0 .5485-.1101.7464-.3062.198-.196.3092-.4619.3092-.7391v-11.3567c0-.7773-.1592-1.5465-.4679-2.2611l-1.068-2.4724c-.1662-.3846-.548-.6341-.9705-.6341z" fill-rule="evenodd"/></g><rect fill="#ec650a" height="19.8051" rx="9.90257" width="20" x="45" y=".344727"/><path d="m58.8919 8.66575c0 .32667-.084.63467-.252.924-.1586.28-.3826.50865-.672.68605-.28.168-.5833.252-.91.252-.4386 0-.7793-.0514-1.022-.154-.2333-.112-.4666-.2894-.7-.53205-.4293.45735-.9613.68605-1.596.68605h-.462v3.836h-1.876v-8.66605h1.876v3.248h.49c.2707 0 .4854-.084.644-.252.168-.168.252-.38266.252-.644v-2.352h1.4v2.352c0 .308.0514.53667.154.686.1027.14.2987.21.588.21.168 0 .308-.06066.42-.182.112-.13066.168-.27533.168-.434v-2.632h1.498z" fill="#fff"/></svg>