<svg width="54" height="54" viewBox="0 0 54 54" fill="none" xmlns="http://www.w3.org/2000/svg">
<rect width="54" height="54" rx="8" fill="#00A991" fill-opacity="0.1"/>
<path fill-rule="evenodd" clip-rule="evenodd" d="M27.6375 13.422L31.7205 12.1005C32.6865 11.787 33.7365 12.2235 34.1985 13.1265L36.15 16.9485C36.348 17.3355 36.663 17.652 37.0515 17.85L40.8255 19.7775C41.757 20.253 42.2055 21.336 41.883 22.332L40.578 26.364C40.4445 26.778 40.4445 27.2235 40.578 27.6375L41.8995 31.7205C42.213 32.6865 41.7765 33.7365 40.8735 34.1985L37.0515 36.15C36.6645 36.348 36.348 36.663 36.15 37.0515L34.197 40.8735C33.735 41.778 32.685 42.213 31.719 41.8995L27.636 40.578C27.222 40.4445 26.7765 40.4445 26.3625 40.578L22.2795 41.8995C21.3135 42.213 20.2635 41.7765 19.8015 40.8735L17.85 37.0515C17.652 36.6645 17.337 36.348 16.9485 36.15L13.1265 34.197C12.222 33.735 11.787 32.685 12.1005 31.719L13.422 27.636C13.5555 27.222 13.5555 26.7765 13.422 26.3625L12.1005 22.281C11.7885 21.315 12.2235 20.2635 13.128 19.8015L16.9485 17.85C17.337 17.652 17.652 17.337 17.85 16.9485L19.803 13.1265C20.2635 12.2235 21.315 11.7885 22.281 12.1005L26.364 13.422C26.7765 13.557 27.2235 13.557 27.6375 13.422V13.422Z" fill="#00A991" stroke="#00A991" stroke-width="2.5" stroke-linecap="round" stroke-linejoin="round"/>
<path d="M22.5 31.5L31.5 22.5" stroke="white" stroke-width="2.5" stroke-linecap="round" stroke-linejoin="round"/>
<path d="M22.8735 22.5C22.6665 22.5 22.4985 22.668 22.5 22.875C22.5 23.082 22.668 23.25 22.875 23.25C23.082 23.25 23.25 23.082 23.25 22.875C23.25 22.668 23.082 22.5 22.8735 22.5" stroke="white" stroke-width="2.5" stroke-linecap="round" stroke-linejoin="round"/>
<path d="M31.1235 30.75C30.9165 30.75 30.7485 30.918 30.75 31.125C30.75 31.332 30.918 31.5 31.125 31.5C31.332 31.5 31.5 31.332 31.5 31.125C31.5 30.918 31.332 30.75 31.1235 30.75" stroke="white" stroke-width="2.5" stroke-linecap="round" stroke-linejoin="round"/>
</svg>
